<svg width="73" height="72" viewBox="0 0 73 72" fill="none" xmlns="http://www.w3.org/2000/svg">
<rect x="0.5" width="72" height="72" rx="36" fill="#00A3E0" fill-opacity="0.1"/>
<path fill-rule="evenodd" clip-rule="evenodd" d="M41.9005 19.7417L50.3181 28.5948C50.5407 28.8297 50.6654 29.1419 50.6654 29.4674V44.8865C50.6654 49.1049 47.2575 52.6673 43.2215 52.6673H29.9487C25.6768 52.6673 22.332 49.2492 22.332 44.8865V40.6814C22.332 39.9867 22.8903 39.4229 23.5782 39.4229C24.2661 39.4229 24.8244 39.9867 24.8244 40.6814V44.8865C24.8244 47.8867 27.026 50.1503 29.9487 50.1503H43.2215C45.9066 50.1503 48.173 47.7391 48.173 44.8865V29.9725L41.8108 23.2806V25.4754C41.8108 27.1601 43.1683 28.5344 44.8365 28.5378C45.5244 28.5395 46.0811 29.1033 46.0794 29.7996C46.0777 30.4926 45.5211 31.0548 44.8332 31.0548H44.8315C41.7925 31.0481 39.3184 28.5462 39.3184 25.4754V21.8711H29.9487C27.1706 21.8711 24.8244 24.1599 24.8244 26.8699L24.8244 33.8402C24.8244 34.5349 24.2661 35.0987 23.5782 35.0987C22.8903 35.0987 22.332 34.5349 22.332 33.8402L22.332 26.8699C22.332 22.7957 25.8197 19.3541 29.9487 19.3541H40.4682C40.4842 19.3526 40.4988 19.3482 40.5131 19.344C40.53 19.3389 40.5466 19.334 40.5646 19.334C40.584 19.334 40.6014 19.3392 40.6187 19.3444C40.6325 19.3485 40.6463 19.3526 40.661 19.3541H41.0016C41.3406 19.3541 41.6646 19.4934 41.9005 19.7417ZM37.1051 42.8495C37.1051 43.5442 36.5468 44.108 35.8589 44.108C35.171 44.108 34.6127 43.5442 34.6127 42.8495V34.8656L32.0256 37.4916C31.5404 37.985 30.7512 37.985 30.2627 37.495C29.7758 37.005 29.7742 36.208 30.2593 35.7146L34.9766 30.9307V30.929C35.2025 30.7025 35.5149 30.5615 35.8589 30.5615C36.2045 30.5615 36.5152 30.7025 36.7412 30.929V30.9307L41.4584 35.7146C41.9436 36.208 41.9419 37.005 41.4551 37.495C41.2108 37.7383 40.8935 37.8608 40.5745 37.8608C40.2554 37.8608 39.9364 37.7383 39.6922 37.4916L37.1051 34.8656V42.8495Z" fill="#00A3E0"/>
</svg>
