<svg width="56" height="56" viewBox="0 0 56 56" fill="none" xmlns="http://www.w3.org/2000/svg">
<rect width="56" height="56" rx="10" fill="#E8E8E8"/>
<path fill-rule="evenodd" clip-rule="evenodd" d="M19.792 18.938C22.5039 18.479 25.2495 18.2489 28 18.25C30.797 18.25 33.54 18.486 36.209 18.938C36.6413 19.0127 37.0333 19.238 37.3154 19.5741C37.5974 19.9102 37.7514 20.3352 37.75 20.774V21.818C37.7498 22.6136 37.4336 23.3765 36.871 23.939L30.689 30.121C30.5497 30.2604 30.4393 30.4258 30.3639 30.6078C30.2886 30.7899 30.2499 30.985 30.25 31.182V34.109C30.2501 34.6662 30.0951 35.2125 29.8023 35.6865C29.5094 36.1606 29.0903 36.5437 28.592 36.793L26.835 37.671C26.7206 37.7281 26.5936 37.755 26.4659 37.7492C26.3383 37.7434 26.2142 37.7051 26.1055 37.6379C25.9968 37.5706 25.9071 37.4768 25.8449 37.3651C25.7826 37.2535 25.75 37.1278 25.75 37V31.182C25.7496 30.7843 25.5914 30.403 25.31 30.122L19.13 23.938C18.5673 23.3755 18.2511 22.6126 18.251 21.817V20.774C18.251 19.877 18.89 19.091 19.792 18.938Z" fill="#8C8888"/>
</svg>
