<svg width="24" height="25" viewBox="0 0 24 25" fill="none" xmlns="http://www.w3.org/2000/svg">
<path d="M15 21.3175V13.3175C15 13.0523 14.8946 12.7979 14.7071 12.6104C14.5196 12.4229 14.2652 12.3175 14 12.3175H10C9.73478 12.3175 9.48043 12.4229 9.29289 12.6104C9.10536 12.7979 9 13.0523 9 13.3175V21.3175" stroke="#1E293B" stroke-width="1.5" stroke-linecap="round" stroke-linejoin="round"/>
<path d="M3 10.318C2.99993 10.027 3.06333 9.73958 3.18579 9.47568C3.30824 9.21177 3.4868 8.97776 3.709 8.78996L10.709 2.79096C11.07 2.48587 11.5274 2.31848 12 2.31848C12.4726 2.31848 12.93 2.48587 13.291 2.79096L20.291 8.78996C20.5132 8.97776 20.6918 9.21177 20.8142 9.47568C20.9367 9.73958 21.0001 10.027 21 10.318V19.318C21 19.8484 20.7893 20.3571 20.4142 20.7322C20.0391 21.1072 19.5304 21.318 19 21.318H5C4.46957 21.318 3.96086 21.1072 3.58579 20.7322C3.21071 20.3571 3 19.8484 3 19.318V10.318Z" stroke="#1E293B" stroke-width="1.5" stroke-linecap="round" stroke-linejoin="round"/>
</svg>
