<svg width="24" height="19" viewBox="0 0 24 19" fill="none" xmlns="http://www.w3.org/2000/svg">
<path d="M0.759766 0.556566C0.436328 0.715942 0.272266 0.88938 0.112891 1.23157L0.000390625 1.46594V7.91125V14.3566L0.112891 14.5909C0.272266 14.9331 0.436328 15.1066 0.759766 15.2659L1.0457 15.4113H1.93164H2.81289V15.6363C2.81289 16.0628 3.00977 16.6113 3.33789 17.0847L3.47383 17.2863H1.86133H0.248828L0.122266 17.4081C-0.0511719 17.5863 -0.0511719 17.9238 0.122266 18.1019L0.248828 18.2238H12.0004H23.752L23.8785 18.1019C24.052 17.9238 24.052 17.5863 23.8785 17.4081C23.7566 17.2863 23.7473 17.2863 23.077 17.2863H22.402L22.5379 17.0847C22.866 16.6113 23.0629 16.0534 23.0629 15.6081V15.3738L23.316 15.2284C23.5926 15.0738 23.7566 14.8909 23.902 14.5675C23.991 14.3706 24.0004 14.2628 24.0004 12.6878V11.0144L22.6832 8.38C21.2676 5.54407 21.1926 5.4175 20.7426 5.21125L20.5082 5.09875H18.366H16.2191V3.28V1.45657L16.0738 1.17063C15.9145 0.847191 15.741 0.683128 15.3988 0.523754L15.1645 0.411255H8.10508H1.0457L0.759766 0.556566ZM14.8551 1.37688C14.9348 1.39563 15.052 1.46125 15.1176 1.52688L15.2348 1.64407V8.05657V14.4738H11.7801H8.3207L8.13789 14.1081C7.79102 13.4331 7.0832 12.8613 6.34727 12.6691C5.9957 12.58 5.25508 12.58 4.90352 12.6691C4.16289 12.8613 3.4082 13.4753 3.09414 14.1316L2.93477 14.4738H2.20352C1.11133 14.4738 0.994141 14.4128 0.947266 13.8409L0.923828 13.5363H1.74414H2.56445L2.69102 13.4144L2.81289 13.2878V12.13V10.9722L2.69102 10.8456L2.56445 10.7238H1.74883H0.937891L0.947266 6.20969C0.961328 1.99563 0.966016 1.68625 1.0457 1.56907C1.08789 1.50344 1.1957 1.42375 1.28008 1.40032C1.44883 1.35344 14.6113 1.33 14.8551 1.37688ZM20.391 6.15344C20.4473 6.205 20.5785 6.41125 20.677 6.60813L20.8598 6.97375H19.1301H17.4051L17.2879 7.09094C17.2223 7.15657 17.1566 7.28782 17.1379 7.38625C17.1004 7.61125 17.1004 11.0238 17.1379 11.2488C17.1566 11.3472 17.2223 11.4784 17.2879 11.5441L17.4051 11.6613H20.2082H23.016V12.9128C23.0113 13.9347 23.002 14.1878 22.9457 14.2581C22.8801 14.3472 22.8754 14.3472 22.8473 14.2581C22.7629 14.0331 22.4254 13.5644 22.177 13.3394C21.8629 13.0488 21.3707 12.7722 20.9723 12.6691C20.6207 12.58 19.8801 12.58 19.5285 12.6691C18.7926 12.8613 18.0332 13.4753 17.7191 14.1316L17.5551 14.4738H16.8895H16.2191V10.255V6.03157L18.2535 6.04563C20.2129 6.05969 20.2926 6.06438 20.391 6.15344ZM22.0316 9.3175L22.7348 10.7238H20.4145H18.0941V9.3175V7.91125H19.7113H21.3285L22.0316 9.3175ZM1.82852 12.13V12.5988H1.3832H0.937891V12.13V11.6613H1.3832H1.82852V12.13ZM6.37539 13.7284C6.75508 13.9066 7.09258 14.2347 7.27539 14.605C7.4207 14.8956 7.43008 14.9472 7.43008 15.4113C7.43008 15.8472 7.41602 15.9316 7.30351 16.1753C7.13945 16.5222 6.73633 16.9253 6.38945 17.0894C6.1457 17.2019 6.06133 17.2159 5.62539 17.2159C5.18945 17.2159 5.10508 17.2019 4.86133 17.0894C4.51445 16.9253 4.11133 16.5222 3.94727 16.1753C3.83477 15.9316 3.8207 15.8472 3.8207 15.4113C3.8207 14.9753 3.83477 14.8863 3.94258 14.6566C4.1582 14.1972 4.55195 13.8363 5.03008 13.6675C5.39102 13.5409 6.02852 13.5691 6.37539 13.7284ZM21.0004 13.7284C21.3801 13.9066 21.7176 14.2347 21.9004 14.605C22.0457 14.8956 22.0551 14.9472 22.0551 15.4113C22.0551 15.8472 22.041 15.9316 21.9285 16.1753C21.7645 16.5175 21.3848 16.9019 21.0238 17.08C20.766 17.2019 20.7004 17.2159 20.2504 17.2159C19.8145 17.2159 19.7301 17.2019 19.4863 17.0894C19.1395 16.9253 18.7363 16.5222 18.5723 16.1753C18.4598 15.9316 18.4457 15.8472 18.4457 15.4113C18.4457 14.9753 18.4598 14.8863 18.5676 14.6566C18.7832 14.1972 19.177 13.8363 19.6551 13.6675C20.016 13.5409 20.6535 13.5691 21.0004 13.7284ZM17.4473 15.7488C17.4941 16.2269 17.6488 16.63 17.9629 17.0847L18.0988 17.2863H12.9379H7.77695L7.91289 17.0847C8.23633 16.6159 8.43789 16.0534 8.43789 15.6269V15.4113L12.9285 15.4206L17.4145 15.4347L17.4473 15.7488Z" fill="#1E293B"/>
<path d="M4.80938 3.34563C4.71094 3.44407 4.6875 3.51438 4.6875 3.6925C4.6875 4.00188 4.84688 4.16125 5.15625 4.16125C5.46563 4.16125 5.625 4.00188 5.625 3.6925C5.625 3.51438 5.60156 3.44407 5.50313 3.34563C5.40469 3.24719 5.33438 3.22375 5.15625 3.22375C4.97813 3.22375 4.90781 3.24719 4.80938 3.34563Z" fill="#1E293B"/>
<path d="M6.68438 3.34563C6.58594 3.44407 6.5625 3.51438 6.5625 3.6925C6.5625 3.87063 6.58594 3.94094 6.68438 4.03938L6.81094 4.16125H9.98438H13.1578L13.2844 4.03938C13.3828 3.94094 13.4063 3.87063 13.4063 3.6925C13.4063 3.51438 13.3828 3.44407 13.2844 3.34563L13.1578 3.22375H9.98438H6.81094L6.68438 3.34563Z" fill="#1E293B"/>
<path d="M8.55938 5.22063C8.46094 5.31907 8.4375 5.38938 8.4375 5.5675C8.4375 5.74563 8.46094 5.81594 8.55938 5.91438L8.68594 6.03625H10.9219H13.1578L13.2844 5.91438C13.4578 5.73625 13.4578 5.39875 13.2844 5.22063L13.1578 5.09875H10.9219H8.68594L8.55938 5.22063Z" fill="#1E293B"/>
<path d="M5.12344 14.5956C4.83281 14.7691 4.6875 15.0409 4.6875 15.4113C4.6875 15.9878 5.04844 16.3488 5.625 16.3488C6.20156 16.3488 6.5625 15.9878 6.5625 15.4113C6.5625 14.8347 6.20156 14.4738 5.62031 14.4738C5.38125 14.4738 5.27813 14.4972 5.12344 14.5956Z" fill="#1E293B"/>
<path d="M19.7492 14.5956C19.1492 14.9519 19.1492 15.88 19.7539 16.2316C19.9086 16.3253 20.0164 16.3488 20.2508 16.3488C20.8273 16.3488 21.1883 15.9878 21.1883 15.4113C21.1883 14.8347 20.8273 14.4738 20.2461 14.4738C20.007 14.4738 19.9039 14.4972 19.7492 14.5956Z" fill="#1E293B"/>
</svg>
