<svg width="24" height="25" viewBox="0 0 24 25" fill="none" xmlns="http://www.w3.org/2000/svg">
<path d="M15.751 6.3175C15.751 7.31207 15.3559 8.26589 14.6526 8.96916C13.9493 9.67242 12.9955 10.0675 12.001 10.0675C11.0064 10.0675 10.0526 9.67242 9.3493 8.96916C8.64604 8.26589 8.25095 7.31207 8.25095 6.3175C8.25095 5.32294 8.64604 4.36912 9.3493 3.66585C10.0526 2.96259 11.0064 2.5675 12.001 2.5675C12.9955 2.5675 13.9493 2.96259 14.6526 3.66585C15.3559 4.36912 15.751 5.32294 15.751 6.3175ZM4.50195 20.4355C4.53409 18.4679 5.33829 16.5917 6.74113 15.2115C8.14397 13.8314 10.033 13.058 12.001 13.058C13.9689 13.058 15.8579 13.8314 17.2608 15.2115C18.6636 16.5917 19.4678 18.4679 19.5 20.4355C17.1473 21.5143 14.5891 22.071 12.001 22.0675C9.32495 22.0675 6.78495 21.4835 4.50195 20.4355Z" stroke="#1E293B" stroke-width="1.5" stroke-linecap="round" stroke-linejoin="round"/>
</svg>
