<svg width="24" height="25" viewBox="0 0 24 25" fill="none" xmlns="http://www.w3.org/2000/svg">
<path d="M16 22.3174H18C18.5304 22.3174 19.0391 22.1067 19.4142 21.7316C19.7893 21.3565 20 20.8478 20 20.3174V7.31738L15 2.31738H6C5.46957 2.31738 4.96086 2.5281 4.58579 2.90317C4.21071 3.27824 4 3.78695 4 4.31738V7.31738" stroke="#1E293B" stroke-width="1.5" stroke-linecap="round" stroke-linejoin="round"/>
<path d="M14 2.31738V6.31738C14 6.84782 14.2107 7.35652 14.5858 7.7316C14.9609 8.10667 15.4696 8.31738 16 8.31738H20" stroke="#1E293B" stroke-width="1.5" stroke-linecap="round" stroke-linejoin="round"/>
<path d="M8 22.3174C11.3137 22.3174 14 19.6311 14 16.3174C14 13.0037 11.3137 10.3174 8 10.3174C4.68629 10.3174 2 13.0037 2 16.3174C2 19.6311 4.68629 22.3174 8 22.3174Z" stroke="#1E293B" stroke-width="1.5" stroke-linecap="round" stroke-linejoin="round"/>
<path d="M9.5 17.8174L8 16.5674V14.3174" stroke="#1E293B" stroke-width="1.5" stroke-linecap="round" stroke-linejoin="round"/>
</svg>
