<svg width="24" height="25" viewBox="0 0 24 25" fill="none" xmlns="http://www.w3.org/2000/svg">
<path d="M19.5 14.5675V11.9425C19.5 11.0474 19.1444 10.189 18.5115 9.55602C17.8786 8.92308 17.0201 8.5675 16.125 8.5675H14.625C14.3266 8.5675 14.0405 8.44898 13.8295 8.238C13.6185 8.02702 13.5 7.74087 13.5 7.4425V5.9425C13.5 5.0474 13.1444 4.18895 12.5115 3.55602C11.8785 2.92308 11.0201 2.5675 10.125 2.5675H8.25M8.25 15.3175H15.75M8.25 18.3175H12M10.5 2.5675H5.625C5.004 2.5675 4.5 3.0715 4.5 3.6925V20.9425C4.5 21.5635 5.004 22.0675 5.625 22.0675H18.375C18.996 22.0675 19.5 21.5635 19.5 20.9425V11.5675C19.5 9.18056 18.5518 6.89137 16.864 5.20354C15.1761 3.51572 12.8869 2.5675 10.5 2.5675Z" stroke="#1E293B" stroke-width="1.5" stroke-linecap="round" stroke-linejoin="round"/>
</svg>
