<svg width="24" height="25" viewBox="0 0 24 25" fill="none" xmlns="http://www.w3.org/2000/svg">
<path d="M2.25 19.0675C7.58561 19.0632 12.898 19.7697 18.047 21.1685C18.774 21.3665 19.5 20.8265 19.5 20.0725V19.0675M3.75 4.8175V5.5675C3.75 5.76642 3.67098 5.95718 3.53033 6.09784C3.38968 6.23849 3.19891 6.3175 3 6.3175H2.25M2.25 6.3175V5.9425C2.25 5.3215 2.754 4.8175 3.375 4.8175H20.25M2.25 6.3175V15.3175M20.25 4.8175V5.5675C20.25 5.9815 20.586 6.3175 21 6.3175H21.75M20.25 4.8175H20.625C21.246 4.8175 21.75 5.3215 21.75 5.9425V15.6925C21.75 16.3135 21.246 16.8175 20.625 16.8175H20.25M2.25 15.3175V15.6925C2.25 15.9909 2.36853 16.277 2.5795 16.488C2.79048 16.699 3.07663 16.8175 3.375 16.8175H3.75M2.25 15.3175H3C3.19891 15.3175 3.38968 15.3965 3.53033 15.5372C3.67098 15.6778 3.75 15.8686 3.75 16.0675V16.8175M20.25 16.8175V16.0675C20.25 15.8686 20.329 15.6778 20.4697 15.5372C20.6103 15.3965 20.8011 15.3175 21 15.3175H21.75M20.25 16.8175H3.75M15 10.8175C15 11.6132 14.6839 12.3762 14.1213 12.9388C13.5587 13.5014 12.7956 13.8175 12 13.8175C11.2044 13.8175 10.4413 13.5014 9.87868 12.9388C9.31607 12.3762 9 11.6132 9 10.8175C9 10.0219 9.31607 9.25879 9.87868 8.69618C10.4413 8.13358 11.2044 7.8175 12 7.8175C12.7956 7.8175 13.5587 8.13358 14.1213 8.69618C14.6839 9.25879 15 10.0219 15 10.8175ZM18 10.8175H18.008V10.8255H18V10.8175ZM6 10.8175H6.008V10.8255H6V10.8175Z" stroke="#1E293B" stroke-width="1.5" stroke-linecap="round" stroke-linejoin="round"/>
</svg>
